<?xml version="1.0" encoding="UTF-8"?>
<svg id="Layer_1" data-name="Layer 1" xmlns="http://www.w3.org/2000/svg" viewBox="0 0 401 368.14">
  <defs>
    <style>
      .cls-1 {
        fill: #ebcc40;
      }
    </style>
  </defs>
  <path class="cls-1" d="m400.09,156.09c0,1.32-.66,2.57-.93,3.86-.99,4.8-2.67,9.37-4.65,13.83-3.64,8.19-8.5,15.61-14.8,21.95-8.7,8.74-18.82,15.07-31.27,17.03-10.47,1.65-20.06-.43-28.53-6.89-5.89-4.49-10.18-10.72-12.77-17.66-2.01-5.4-3.14-10.96-3.33-16.72-.37-11.05,1.76-21.58,6.37-31.64,3.16-6.9,7.05-13.35,12.12-18.99,9.27-10.31,20.33-17.83,34.31-19.9,14.1-2.09,25.83,2.5,34.81,13.71,4.15,5.18,6.5,11.19,8.1,17.55.06.24.1.44.21.84.46,1.67.75,3.38.89,5.11.62,7.39.51,9.96-.52,17.92Z"/>
  <path class="cls-1" d="m0,141.57c0-1.12,0-2.25.06-3.37.04-.99.11-2.07.28-2.8.51-2.27.51-2.82,1.2-4.83.21-.61.42-1.25.72-2.17,2.2-6.76,5.54-12.82,10.58-17.87s12.04-8.79,19.37-9.95c9.85-1.56,18.84.98,27.19,5.73,11.13,6.32,19.21,15.68,25.18,27.02,2.96,5.62,5.14,11.59,6.58,17.78,1.29,5.53,2.11,11.15,1.94,16.84-.3,10.24-2.47,20.02-8.22,28.69-5.9,8.89-14,14.52-24.71,16.24-8.1,1.3-15.64-.49-22.95-3.74-8.51-3.79-15.35-9.76-21.18-16.92-7.53-9.25-12.38-19.78-14.89-31.42-.2-.94-.31-1.9-.48-2.85,0,0,0-.01,0-.02-.31-1.67-.57-3.36-.57-5.06L0,141.57Z"/>
  <path class="cls-1" d="m277.56,368.1c-4.31.14-8.48-.09-12.57-.86-4.7-.89-9.38-1.91-14.01-3.14-8.54-2.25-17.02-4.71-25.58-6.88-12.45-3.14-25.07-4.49-37.89-3.82-4.91.26-9.73,1.23-14.55,2.25-8.44,1.8-16.71,4.22-25.05,6.4-8.22,2.15-16.45,4.28-24.88,5.43-5.37.73-10.77.7-16.19.21-5.41-.49-10.59-1.76-15.61-3.71-5.35-2.07-10-5.3-14.32-9.01-5.77-4.96-10.55-10.75-14.09-17.51-3.56-6.79-5.72-14-6.53-21.63-.22-2.07-.46-4.13-.48-6.22-.09-9.6,1.6-18.89,4.88-27.9,4.09-11.24,10.21-21.27,17.81-30.48,5.41-6.56,11.77-12.11,18-17.81,4.24-3.88,8.09-8.15,11.82-12.53,9.1-10.72,16.91-22.39,25.11-33.78,4.5-6.25,8.95-12.55,14.02-18.36,6.77-7.75,14.13-14.85,23.45-19.57,6.48-3.28,13.33-5.07,20.61-5.42,10.49-.5,20.59,1.17,30.31,5.03,8.93,3.54,16.26,9.36,22.65,16.44,7.97,8.83,14.11,18.96,20.56,28.87,6.57,10.09,13.12,20.19,21.08,29.27,4.56,5.2,9.49,10.05,14.68,14.63,4.35,3.83,8.41,7.95,12.19,12.35,4.74,5.51,8.99,11.37,12.63,17.65,5.73,9.87,9.65,20.41,11.15,31.74,1.37,10.39.5,20.59-3.3,30.47-4.62,12.01-12.54,21.27-23.26,28.24-4.74,3.08-9.74,5.61-15.17,7.23-5.75,1.71-11.59,2.68-17.48,2.43Z"/>
  <path class="cls-1" d="m314.42,56.66c-.25,7.95-1.13,15.48-2.99,22.91-2.39,9.57-6.44,18.39-11.83,26.57-6.08,9.22-13.81,16.76-23.7,21.88-6.67,3.45-13.79,5.21-21.33,4.79-8.79-.5-16.46-3.8-23.07-9.63-7.27-6.42-11.86-14.5-14.83-23.61-2.27-6.98-3.41-14.13-3.66-21.46-.32-9.38,1.13-18.5,3.71-27.47,2.61-9.07,6.47-17.58,12.01-25.26,6.52-9.05,14.36-16.64,24.67-21.3,7.97-3.61,16.26-5.16,24.95-3.25,6.94,1.53,13.05,4.69,18.23,9.6,7.5,7.11,12.14,15.83,14.93,25.7,1.93,6.83,2.62,13.8,2.91,20.53Z"/>
  <path class="cls-1" d="m83.82,59.4c-.15-8.55,1.06-16.36,3.51-23.93,3.43-10.61,8.98-19.9,18.01-26.72,7.51-5.68,16.03-8.08,25.46-7.24,9.38.84,17.29,4.93,24.39,10.81,7.19,5.96,12.7,13.27,16.9,21.59,4.82,9.55,7.73,19.65,8.81,30.29.98,9.61.54,19.12-1.89,28.5-2.71,10.44-7.4,19.8-15.26,27.35-5.99,5.76-13.07,9.44-21.38,10.49-8.49,1.08-16.38-.87-23.82-4.91-10.71-5.82-18.34-14.64-24.21-25.11-5.49-9.79-8.66-20.34-9.95-31.48-.39-3.39-.79-6.78-.55-9.64Z"/>
</svg>